# xmcd
#
# Track frame offsets:
#  150
#  14362
#  27510
#  39888
#  51765
#  64562
#  78626
#  89543
#  101827
#  114251
#  128785
#  140746
#  153657
#  163900
#  177579
#  187464
#  198923
#  210863
#  222136
#  234616
#  246325
#  257065
#  268271
#  280327
#  292461
#  305353
#  318434
#  329128
#  341996
#
# Disc length: 4704 seconds
#
# Revision: 0
# Processed by: cddbd v1.5.1PL2 Copyright (c) Steve Scherf et al.
# Submitted via: Collectorz.com_Music_Collector 6.11
#
DISCID=d2125e1d
DTITLE=Dinah Washington - Risque Blues
DYEAR=1900
DGENRE=Blues
TTITLE0=I Know How To Do It
TTITLE1=Big, Long Slidin' Thing
TTITLE2=Double Dealing Daddy
TTITLE3=TV Is The Thing
TTITLE4=Richest Guy in the Graveyard
TTITLE5=Long John Blues
TTITLE6=Fat Daddy
TTITLE7=Drummer Man
TTITLE8=Joy Juice
TTITLE9=Gambler's Blues
TTITLE10=A Slick Chick On The Mellow Side
TTITLE11=Evil Gal Blues
TTITLE12=Lean Baby
TTITLE13=Salty Papa Blues
TTITLE14=Fast Movin' Mama
TTITLE15=What A Great Sensation
TTITLE16=Oo Wee Walkie Talkie
TTITLE17=Fine Fine Daddy
TTITLE18=You Satisfy
TTITLE19=New Blowtop Blues
TTITLE20=Good Daddy Blues
TTITLE21=My Man's An Undertaker
TTITLE22=Juicehead Man Of Mine
TTITLE23=Hey Good Looking
TTITLE24=Short John
TTITLE25=Pillow Blues
TTITLE26=Go Pretty Daddy
TTITLE27=Postman Blues
TTITLE28=TV Is The Thing (Unreleased version)
EXTD=
EXTT0=
EXTT1=
EXTT2=
EXTT3=
EXTT4=
EXTT5=
EXTT6=
EXTT7=
EXTT8=
EXTT9=
EXTT10=
EXTT11=
EXTT12=
EXTT13=
EXTT14=
EXTT15=
EXTT16=
EXTT17=
EXTT18=
EXTT19=
EXTT20=
EXTT21=
EXTT22=
EXTT23=
EXTT24=
EXTT25=
EXTT26=
EXTT27=
EXTT28=
PLAYORDER=
